<?xml version="1.0" standalone="no"?>
<!DOCTYPE svg PUBLIC "-//W3C//DTD SVG 20010904//EN"
 "http://www.w3.org/TR/2001/REC-SVG-20010904/DTD/svg10.dtd">
<svg version="1.0" xmlns="http://www.w3.org/2000/svg"
 width="752.000000pt" height="752.000000pt" viewBox="0 0 752.000000 752.000000"
 preserveAspectRatio="xMidYMid meet">

<g transform="translate(0.000000,752.000000) scale(0.100000,-0.100000)"
fill="#000000" stroke="none">
<path d="M2820 4678 c-151 -44 -178 -249 -42 -326 l40 -22 901 0 c982 0 926
-3 983 57 78 82 58 213 -40 271 l-47 27 -880 2 c-566 1 -892 -2 -915 -9z"/>
<path d="M2794 3771 c-61 -28 -97 -80 -101 -149 -5 -69 15 -112 70 -156 l39
-31 654 -3 c638 -2 655 -2 693 18 134 68 132 259 -3 321 -39 17 -79 19 -676
19 -599 0 -637 -2 -676 -19z"/>
<path d="M2795 2876 c-151 -68 -134 -293 27 -336 24 -7 170 -10 401 -8 403 3
399 3 453 73 28 38 42 111 30 159 -9 36 -65 96 -103 112 -47 20 -764 19 -808
0z"/>
</g>
</svg>
